<svg width="179" height="60" viewBox="0 0 179 60" fill="none" xmlns="http://www.w3.org/2000/svg">
<path d="M62.9125 51.4022V58.3254H60.763V51.4022H58.2761L58.3171 49.5491H65.3463L65.3872 51.4022H62.9125Z" fill="#53565A"/>
<path d="M73.6662 51.2673H72.3409V53.5927H73.6397C74.5602 53.5927 74.8976 53.3228 74.8976 52.4023C74.8976 51.5516 74.5867 51.2673 73.6662 51.2673ZM75.6012 54.7276L77.7363 58.323H75.235L73.6542 55.1469H72.3433V58.323H70.2347V49.5491H73.6686C75.9675 49.5491 77.117 50.4407 77.117 52.3059C77.1146 53.5397 76.5748 54.4168 75.6012 54.7276Z" fill="#53565A"/>
<path d="M85.5516 52.2821L84.713 54.9448H86.9974L86.1854 52.2941L85.901 51.2266H85.8601L85.5516 52.2821ZM87.5252 56.6485H84.1853L83.6575 58.3257H81.3996L84.6431 49.5518H87.13L90.4289 58.3257H88.036L87.5252 56.6485Z" fill="#53565A"/>
<path d="M99.9062 53.7276L102.61 58.3254H100.191L98.9327 56.012L98.4459 55.0385H98.4074L97.9062 56.0265L96.6892 58.3254H94.2024L96.8651 53.7806L94.2698 49.5491H96.8242L97.9206 51.5372L98.4194 52.4986H98.4604L98.9616 51.5372L100.07 49.5491H102.516L99.9062 53.7276Z" fill="#53565A"/>
<path d="M109.492 49.5518H107.316V58.3257H109.492V49.5518Z" fill="#53565A"/>
<path d="M133.124 58.3248L129.798 53.5921L129.191 52.686L129.164 52.7005L129.177 53.7945V58.3248H127.297V49.551H129.068L132.3 54.0644L132.921 54.956L132.948 54.944L132.921 53.862V49.551H134.815V58.3248H133.124Z" fill="#53565A"/>
<path d="M120.731 47.0406L119.1 48.4623H117.644L118.408 47.0406H120.731ZM118.437 51.1492C117.097 51.1492 116.63 51.689 116.63 53.9204C116.63 56.1518 117.112 56.7157 118.449 56.7157C119.777 56.7157 120.247 56.1398 120.247 53.9204C120.247 51.689 119.789 51.1492 118.437 51.1492ZM118.437 58.4892C115.724 58.4892 114.55 57.0555 114.55 53.9204C114.55 50.7853 115.69 49.3756 118.437 49.3756C121.196 49.3756 122.312 50.7853 122.312 53.9204C122.312 57.1157 121.196 58.4892 118.437 58.4892Z" fill="#53565A"/>
<path d="M47.6655 53.2842C48.0053 53.7397 48.174 54.5036 48.174 55.5735C48.174 56.6434 48.0005 57.4169 47.6511 57.8868C47.3017 58.3591 46.786 58.5929 46.1016 58.5929C45.4293 58.5929 44.9305 58.3664 44.6003 57.9157L44.5714 57.9254L44.4365 58.4868H43.875V50.8094L44.7184 50.7612V52.4264L44.7088 53.1999L44.7281 53.2095C45.0967 52.8023 45.5859 52.5999 46.2004 52.5999C46.8366 52.6023 47.3258 52.8288 47.6655 53.2842ZM47.3017 55.5928C47.3017 54.7349 47.1932 54.1541 46.9763 53.8505C46.7595 53.5469 46.4221 53.3951 45.9643 53.3951C45.41 53.3951 44.9931 53.6144 44.716 54.0529V57.1615C44.9739 57.6266 45.3931 57.8579 45.9739 57.8579C46.4125 57.8579 46.7426 57.6964 46.9667 57.3735C47.1908 57.0506 47.3017 56.4579 47.3017 55.5928Z" fill="#1D1D1F"/>
<path d="M50.0808 59.3205C50.2928 59.3205 50.4735 59.2675 50.6181 59.1614C50.7627 59.0554 50.8904 58.8698 51.0013 58.6048L51.0302 58.4987L48.765 52.6985H49.7434L51.1965 56.9011L51.4374 57.6457H51.4664L51.6591 56.8914L52.8303 52.6985H53.7508L51.8423 58.6337C51.6688 59.1253 51.4519 59.4747 51.1941 59.6843C50.9362 59.894 50.6133 60 50.2253 60C49.9145 60 49.6446 59.9422 49.4108 59.8265L49.4976 59.1783C49.6928 59.2723 49.888 59.3205 50.0808 59.3205Z" fill="#1D1D1F"/>
<path d="M144.031 0.0146484H136.029V8.01737H144.031V0.0146484Z" fill="#1D1D1F"/>
<path d="M136.029 8.01813H128.026V16.0184H120.026V24.0212H128.026H136.029V16.0184V8.01813Z" fill="#1D1D1F"/>
<path d="M144.032 24.0215H136.03V32.0242H144.032V24.0215Z" fill="#1D1D1F"/>
<path d="M120.026 24.0215H112.024V32.0242H120.026V24.0215Z" fill="#1D1D1F"/>
<path d="M120.026 0.0146484H112.023V8.01737H120.026V0.0146484Z" fill="#1D1D1F"/>
<path d="M17.9343 7.07016V32.0085H10.0256V7.07016H0.675781V0H27.3299V7.07016H17.9343Z" fill="#1D1D1F"/>
<path d="M55.8879 19.3718L63.358 32.023H54.1938L48.7695 20.8346H43.8392V32.023H35.9786V0H48.7695C57.4205 0 61.7483 3.23627 61.7483 10.3281C61.7483 14.9837 59.6567 18.2634 55.8879 19.3718ZM48.8177 6.20507H43.8392V15.2464H48.6779C52.1672 15.2464 53.5624 14.2271 53.5624 10.6366C53.5624 7.27016 52.2588 6.20507 48.8177 6.20507Z" fill="#1D1D1F"/>
<path d="M93.3204 25.789H80.6669L78.7125 32.023H70.4327L82.4814 0H91.8312L104.02 32.023H95.2747L93.3204 25.789ZM86.0623 8.79553L82.573 19.7695H91.4577L88.1081 8.79553L87.178 5.4219H87.0382L86.0623 8.79553Z" fill="#1D1D1F"/>
<path d="M152.08 0.00454712H160.08V32.0227H152.08V0.00454712Z" fill="#1D1D1F"/>
<path d="M171.469 7.2514C170.264 7.2514 169.729 6.69234 169.729 5.34289C169.729 3.99344 170.271 3.4151 171.476 3.4151C172.686 3.4151 173.211 3.99344 173.211 5.34289C173.209 6.69234 172.686 7.2514 171.469 7.2514ZM171.474 6.34775C171.871 6.34775 172.011 6.15497 172.011 5.34289C172.011 4.51635 171.874 4.33562 171.474 4.33562C171.071 4.33562 170.931 4.51635 170.931 5.34289C170.934 6.1622 171.076 6.34775 171.474 6.34775Z" fill="#1D1D1F"/>
<path d="M175.753 7.16742V4.86612C175.753 4.52876 175.601 4.39623 175.307 4.39623C175.114 4.39623 174.929 4.47575 174.825 4.60829V7.16742H173.668V3.50463L174.5 3.45644L174.661 3.7456C174.931 3.52872 175.276 3.41547 175.637 3.41547C176.413 3.41547 176.914 3.93356 176.914 4.86612V7.16742H175.753Z" fill="#1D1D1F"/>
<path d="M173.321 10.6604C170.384 10.6604 167.993 8.26993 167.993 5.33247C167.993 2.395 170.384 0.00454712 173.321 0.00454712C176.259 0.00454712 178.649 2.395 178.649 5.33247C178.649 8.27234 176.259 10.6604 173.321 10.6604ZM173.321 0.790123C170.817 0.790123 168.779 2.82875 168.779 5.33247C168.779 7.83618 170.817 9.87482 173.321 9.87482C175.825 9.87482 177.864 7.83618 177.864 5.33247C177.864 2.82875 175.823 0.790123 173.321 0.790123Z" fill="#1D1D1F"/>
</svg>
